<?xml version="1.0" encoding="UTF-8" standalone="no"?>
<svg
   xmlns:dc="http://purl.org/dc/elements/1.1/"
   xmlns:cc="http://creativecommons.org/ns#"
   xmlns:rdf="http://www.w3.org/1999/02/22-rdf-syntax-ns#"
   xmlns:svg="http://www.w3.org/2000/svg"
   xmlns="http://www.w3.org/2000/svg"
   xmlns:sodipodi="http://sodipodi.sourceforge.net/DTD/sodipodi-0.dtd"
   xmlns:inkscape="http://www.inkscape.org/namespaces/inkscape"
   viewBox="0 0 37 47"
   fill="none"
   version="1.1"
   id="svg941"
   sodipodi:docname="marker_multiple3.svg"
   inkscape:version="1.0.2 (e86c870879, 2021-01-15)">
  <metadata
     id="metadata947">
    <rdf:RDF>
      <cc:Work
         rdf:about="">
        <dc:format>image/svg+xml</dc:format>
        <dc:type
           rdf:resource="http://purl.org/dc/dcmitype/StillImage" />
        <dc:title></dc:title>
      </cc:Work>
    </rdf:RDF>
  </metadata>
  <defs
     id="defs945" />
  <sodipodi:namedview
     pagecolor="#ffffff"
     bordercolor="#666666"
     borderopacity="1"
     objecttolerance="10"
     gridtolerance="10"
     guidetolerance="10"
     inkscape:pageopacity="0"
     inkscape:pageshadow="2"
     inkscape:window-width="1920"
     inkscape:window-height="1006"
     id="namedview943"
     showgrid="false"
     inkscape:zoom="15.212766"
     inkscape:cx="18.5"
     inkscape:cy="23.5"
     inkscape:window-x="0"
     inkscape:window-y="0"
     inkscape:window-maximized="1"
     inkscape:current-layer="svg941" />
  <path
     fill-rule="evenodd"
     clip-rule="evenodd"
     d="m 22.750135,6.0184272 c -7.657957,0 -15.9087768,5.9815278 -15.9087768,13.6179138 0,9.067419 8.6100658,15.851384 15.9087768,21.339734 7.29871,-5.48835 13.759926,-12.169725 13.759926,-21.237143 0,-7.635642 -6.10197,-13.7205048 -13.759926,-13.7205048 z m 0,8.8286658 c 2.585608,0.942364 4.90597,2.148035 4.90597,4.891839 0,2.744547 -2.444842,3.660471 -4.90597,4.89184 -7.72732,3.866189 -14.4729832,-1.626805 -14.4729832,-4.371353 0,-2.744547 4.8437762,-8.921837 14.4729832,-5.412326 z"
     fill="#ff002e"
     id="path939-7"
     style="stroke:#ffffff;stroke-width:0.743779;stroke-opacity:1"
     sodipodi:nodetypes="sscsssssss" />
  <path
     fill-rule="evenodd"
     clip-rule="evenodd"
     d="m 18.5,6.0184269 c -7.657956,0 -13.7599255,6.0841191 -13.7599255,13.7205051 0,9.067418 6.4612155,15.748793 13.7599255,21.237143 C 25.79871,35.487725 32.259926,28.80635 32.259926,19.738932 32.259926,12.10329 26.157956,6.0184269 18.5,6.0184269 Z m 0,8.8286661 c 2.751985,0 4.905971,2.148035 4.905971,4.891839 0,2.744547 -2.153986,4.89184 -4.905971,4.89184 -2.751986,0 -10.500863,3.336405 -11.0153335,-6.757842 C 7.1612071,11.526447 15.748014,14.847093 18.5,14.847093 Z"
     fill="#ff002e"
     id="path939-6"
     style="stroke:#ffffff;stroke-width:0.743779;stroke-opacity:1"
     sodipodi:nodetypes="sscsssssss" />
  <path
     fill-rule="evenodd"
     clip-rule="evenodd"
     d="m 14.249865,6.0184267 c -7.6579558,0 -13.75992528,6.0841193 -13.75992528,13.7205053 0,9.067418 6.46121518,15.748793 13.75992528,21.237143 7.298711,-5.48835 13.759927,-12.169725 13.759927,-21.237143 0,-7.635642 -6.10197,-13.7205053 -13.759927,-13.7205053 z m 0,8.8286663 c 2.751986,0 4.905971,2.148035 4.905971,4.891839 0,2.744547 -2.153985,4.89184 -4.905971,4.89184 -2.751985,0 -4.9059708,-2.147293 -4.9059708,-4.89184 0,-2.744547 2.1539858,-4.891839 4.9059708,-4.891839 z"
     fill="#ff002e"
     id="path939"
     style="stroke:#ffffff;stroke-width:0.743779;stroke-opacity:1" />
</svg>
