<svg xmlns="http://www.w3.org/2000/svg" viewBox="0 0 37 47" fill="none"><path fill-rule="evenodd" clip-rule="evenodd" d="M22.762 11.595c-7.658 0-15.909 5.981-15.909 13.617 0 9.068 8.61 15.852 15.91 21.34 7.298-5.488 13.76-12.17 13.76-21.237 0-7.636-6.103-13.72-13.76-13.72zm0 8.828c2.586.943 4.906 2.148 4.906 4.892 0 2.745-2.445 3.66-4.906 4.892C15.035 34.073 8.29 28.58 8.29 25.836c0-2.745 4.844-8.922 14.473-5.413z" fill="#ED340B" stroke="#fff" stroke-width=".744"/><path fill-rule="evenodd" clip-rule="evenodd" d="M18.512 11.595c-7.658 0-13.76 6.084-13.76 13.72 0 9.067 6.461 15.749 13.76 21.237 7.299-5.488 13.76-12.17 13.76-21.237 0-7.636-6.102-13.72-13.76-13.72zm0 8.828c2.752 0 4.906 2.148 4.906 4.892 0 2.745-2.154 4.892-4.906 4.892s-10.5 3.336-11.015-6.758c-.324-6.346 8.263-3.026 11.015-3.026z" fill="#ED340B" stroke="#fff" stroke-width=".744"/><path fill-rule="evenodd" clip-rule="evenodd" d="M14.262 11.595c-7.658 0-13.76 6.084-13.76 13.72 0 9.067 6.461 15.749 13.76 21.237 7.299-5.488 13.76-12.17 13.76-21.237 0-7.636-6.102-13.72-13.76-13.72zm0 8.828c2.752 0 4.906 2.148 4.906 4.892 0 2.745-2.154 4.892-4.906 4.892s-4.906-2.147-4.906-4.892c0-2.744 2.154-4.892 4.906-4.892z" fill="#ED340B" stroke="#fff" stroke-width=".744"/></svg>